<svg viewBox="75.469 201.107 187.616 259.4193" xmlns="http://www.w3.org/2000/svg">
    <path fill-rule="evenodd" clip-rule="evenodd" d="M 90.328 202.448 L 134.683 231.825 C 137.063 233.402 138.512 236.188 138.512 239.189 L 138.512 423.391 C 138.512 426.434 137.022 429.254 134.588 430.816 L 90.233 459.297 C 86.411 461.751 81.459 460.416 79.172 456.315 C 78.423 454.972 78.028 453.436 78.028 451.872 L 78.028 209.813 C 78.028 205.033 81.638 201.159 86.092 201.159 C 87.588 201.159 89.055 201.605 90.328 202.448 Z" fill="#9155FD" style="" transform="matrix(1, 0, 0, 1, -5.684341886080802e-14, 0)"/>
    <path opacity="0.077704" fill-rule="evenodd" clip-rule="evenodd" d="M 75.469 255.254 L 137.993 279.459 L 138.285 314.058 L 75.469 255.254 Z" fill="black" transform="matrix(1, 0, 0, 1, -5.684341886080802e-14, 0)"/>
    <path opacity="0.077704" fill-rule="evenodd" clip-rule="evenodd" d="M 78.093 257.294 L 138.286 275.378 L 137.705 300.52 L 78.093 257.294 Z" fill="black" style="" transform="matrix(1, 0, 0, 1, -5.684341886080802e-14, 0)"/>
    <path opacity="0.077704" fill-rule="evenodd" clip-rule="evenodd" d="M 137.814 372.691 L 78.254 395.295 L 79.179 425.173 L 137.814 372.691 Z" fill="black" transform="matrix(1, 0, 0, 1, -5.684341886080802e-14, 0)"/>
    <path opacity="0.077704" fill-rule="evenodd" clip-rule="evenodd" d="M 138.122 372.075 L 78.871 395.38 L 78.254 415.059 L 138.122 372.075 Z" fill="black" transform="matrix(1, 0, 0, 1, -5.684341886080802e-14, 0)"/>
    <path fill-rule="evenodd" clip-rule="evenodd" d="M 90.485 202.296 L 257.237 268.532 L 259.295 324.684 L 78.206 256.353 L 78.206 209.175 C 78.206 204.719 81.816 201.107 86.27 201.107 C 87.758 201.107 89.216 201.518 90.485 202.296 Z" style="fill: rgb(160, 109, 251);" transform="matrix(1, 0, 0, 1, -5.684341886080802e-14, 0)"/>
    <path fill-rule="evenodd" clip-rule="evenodd" d="M 250.806 269.396 L 78.085 338.514 L 78.085 395.077 L 263.085 323.453 L 263.085 276.275 C 263.085 271.819 259.474 268.207 255.02 268.207 C 253.533 268.207 252.075 268.618 250.806 269.396 Z" style="fill: rgb(184, 145, 255);" transform="matrix(1, 0, 0, 1, -5.684341886080802e-14, 0)"/>
</svg>